{
	"asset":{
		"generator":"Khronos glTF Blender I/O v4.3.47",
		"version":"2.0"
	},
	"scene":0,
	"scenes":[
		{
			"name":"Scene",
			"nodes":[
				0
			]
		}
	],
	"nodes":[
		{
			"mesh":0,
			"name":"Geo_Penguin",
			"scale":[
				0.5,
				0.5,
				0.5
			],
			"translation":[
				0,
				44,
				0
			]
		}
	],
	"materials":[
		{
			"name":"lambert2SG",
			"pbrMetallicRoughness":{
				"baseColorTexture":{
					"index":0
				},
				"metallicFactor":0
			}
		}
	],
	"meshes":[
		{
			"name":"Geo_Penguin_1",
			"primitives":[
				{
					"attributes":{
						"POSITION":0,
						"NORMAL":1,
						"TEXCOORD_0":2
					},
					"indices":3,
					"material":0
				}
			]
		}
	],
	"textures":[
		{
			"sampler":0,
			"source":0
		}
	],
	"images":[
		{
			"mimeType":"image/png",
			"name":"Tex_Penguin",
			"uri":"Tex_Penguin.png"
		}
	],
	"accessors":[
		{
			"bufferView":0,
			"componentType":5126,
			"count":840,
			"max":[
				35.35031509399414,
				87.94685363769531,
				49.23370361328125
			],
			"min":[
				-35.350318908691406,
				-87.94685363769531,
				-49.23370361328125
			],
			"type":"VEC3"
		},
		{
			"bufferView":1,
			"componentType":5126,
			"count":840,
			"type":"VEC3"
		},
		{
			"bufferView":2,
			"componentType":5126,
			"count":840,
			"type":"VEC2"
		},
		{
			"bufferView":3,
			"componentType":5123,
			"count":1368,
			"type":"SCALAR"
		}
	],
	"bufferViews":[
		{
			"buffer":0,
			"byteLength":10080,
			"byteOffset":0,
			"target":34962
		},
		{
			"buffer":0,
			"byteLength":10080,
			"byteOffset":10080,
			"target":34962
		},
		{
			"buffer":0,
			"byteLength":6720,
			"byteOffset":20160,
			"target":34962
		},
		{
			"buffer":0,
			"byteLength":2736,
			"byteOffset":26880,
			"target":34963
		}
	],
	"samplers":[
		{
			"magFilter":9729,
			"minFilter":9987
		}
	],
	"buffers":[
		{
			"byteLength":29616,
			"uri":"porygon.bin"
		}
	]
}
