{
	"asset":{
		"generator":"Khronos glTF Blender I/O v4.3.47",
		"version":"2.0"
	},
	"scene":0,
	"scenes":[
		{
			"name":"Scene",
			"nodes":[
				0
			]
		}
	],
	"nodes":[
		{
			"mesh":0,
			"name":"Geo_Dinosaur",
			"scale":[
				0.10000000149011612,
				0.10000000149011612,
				0.10000000149011612
			],
			"translation":[
				0,
				12.300000190734863,
				-3
			]
		}
	],
	"materials":[
		{
			"name":"lambert2SG",
			"pbrMetallicRoughness":{
				"baseColorTexture":{
					"index":0
				},
				"metallicFactor":0
			}
		}
	],
	"meshes":[
		{
			"name":"Geo_Dinosaur_1",
			"primitives":[
				{
					"attributes":{
						"POSITION":0,
						"NORMAL":1,
						"TEXCOORD_0":2
					},
					"indices":3,
					"material":0
				}
			]
		}
	],
	"textures":[
		{
			"sampler":0,
			"source":0
		}
	],
	"images":[
		{
			"mimeType":"image/png",
			"name":"Tex_Dinosaur",
			"uri":"Tex_Dinosaur.png"
		}
	],
	"accessors":[
		{
			"bufferView":0,
			"componentType":5126,
			"count":2142,
			"max":[
				62.318763732910156,
				122.33513641357422,
				271.1417236328125
			],
			"min":[
				-62.318763732910156,
				-122.33513641357422,
				-271.1417236328125
			],
			"type":"VEC3"
		},
		{
			"bufferView":1,
			"componentType":5126,
			"count":2142,
			"type":"VEC3"
		},
		{
			"bufferView":2,
			"componentType":5126,
			"count":2142,
			"type":"VEC2"
		},
		{
			"bufferView":3,
			"componentType":5123,
			"count":3048,
			"type":"SCALAR"
		}
	],
	"bufferViews":[
		{
			"buffer":0,
			"byteLength":25704,
			"byteOffset":0,
			"target":34962
		},
		{
			"buffer":0,
			"byteLength":25704,
			"byteOffset":25704,
			"target":34962
		},
		{
			"buffer":0,
			"byteLength":17136,
			"byteOffset":51408,
			"target":34962
		},
		{
			"buffer":0,
			"byteLength":6096,
			"byteOffset":68544,
			"target":34963
		}
	],
	"samplers":[
		{
			"magFilter":9729,
			"minFilter":9987
		}
	],
	"buffers":[
		{
			"byteLength":74640,
			"uri":"scene.bin"
		}
	]
}
