{
	"asset":{
		"generator":"Khronos glTF Blender I/O v4.3.47",
		"version":"2.0"
	},
	"scene":0,
	"scenes":[
		{
			"name":"Scene",
			"nodes":[
				0
			]
		}
	],
	"nodes":[
		{
			"mesh":0,
			"name":"Rooster_mesh",
			"translation":[
				0,
				0.019999999552965164,
				-0.5
			]
		}
	],
	"materials":[
		{
			"name":"Rooster_mat",
			"pbrMetallicRoughness":{
				"baseColorTexture":{
					"index":0
				},
				"metallicFactor":0
			}
		}
	],
	"meshes":[
		{
			"name":"Rooster_mesh_1",
			"primitives":[
				{
					"attributes":{
						"POSITION":0,
						"NORMAL":1,
						"TEXCOORD_0":2
					},
					"indices":3,
					"material":0
				}
			]
		}
	],
	"textures":[
		{
			"sampler":0,
			"source":0
		}
	],
	"images":[
		{
			"mimeType":"image/png",
			"name":"Rooster_BaseColor",
			"uri":"Rooster_BaseColor.png"
		}
	],
	"accessors":[
		{
			"bufferView":0,
			"componentType":5126,
			"count":2484,
			"max":[
				0.6436520218849182,
				3.4677209854125977,
				1.6207319498062134
			],
			"min":[
				-0.6436520218849182,
				0,
				-1.6207319498062134
			],
			"type":"VEC3"
		},
		{
			"bufferView":1,
			"componentType":5126,
			"count":2484,
			"type":"VEC3"
		},
		{
			"bufferView":2,
			"componentType":5126,
			"count":2484,
			"type":"VEC2"
		},
		{
			"bufferView":3,
			"componentType":5123,
			"count":3600,
			"type":"SCALAR"
		}
	],
	"bufferViews":[
		{
			"buffer":0,
			"byteLength":29808,
			"byteOffset":0,
			"target":34962
		},
		{
			"buffer":0,
			"byteLength":29808,
			"byteOffset":29808,
			"target":34962
		},
		{
			"buffer":0,
			"byteLength":19872,
			"byteOffset":59616,
			"target":34962
		},
		{
			"buffer":0,
			"byteLength":7200,
			"byteOffset":79488,
			"target":34963
		}
	],
	"samplers":[
		{
			"magFilter":9729,
			"minFilter":9987
		}
	],
	"buffers":[
		{
			"byteLength":86688,
			"uri":"scene.bin"
		}
	]
}
