{
	"asset":{
		"generator":"Khronos glTF Blender I/O v4.3.47",
		"version":"2.0"
	},
	"scene":0,
	"scenes":[
		{
			"name":"Scene",
			"nodes":[
				0
			]
		}
	],
	"nodes":[
		{
			"mesh":0,
			"name":"Node",
			"translation":[
				0,
				-1,
				3
			]
		}
	],
	"materials":[
		{
			"name":"lambert2SG.001",
			"pbrMetallicRoughness":{
				"baseColorTexture":{
					"index":0
				},
				"metallicFactor":0
			}
		},
		{
			"name":"lambert3SG",
			"pbrMetallicRoughness":{
				"baseColorFactor":[
					0.009999999776482582,
					0.009999999776482582,
					0.009999999776482582,
					1
				],
				"metallicFactor":0
			}
		}
	],
	"meshes":[
		{
			"name":"Node-Mesh",
			"primitives":[
				{
					"attributes":{
						"POSITION":0,
						"NORMAL":1,
						"TEXCOORD_0":2
					},
					"indices":3,
					"material":0
				},
				{
					"attributes":{
						"POSITION":4,
						"NORMAL":5,
						"TEXCOORD_0":6
					},
					"indices":7,
					"material":1
				}
			]
		}
	],
	"textures":[
		{
			"sampler":0,
			"source":0
		}
	],
	"images":[
		{
			"mimeType":"image/png",
			"name":"parrotTxt",
			"uri":"parrotTxt.png"
		}
	],
	"accessors":[
		{
			"bufferView":0,
			"componentType":5126,
			"count":7900,
			"max":[
				1.7044600248336792,
				8.452841758728027,
				0.6158319711685181
			],
			"min":[
				-1.7044600248336792,
				0.90516597032547,
				-10.432645797729492
			],
			"type":"VEC3"
		},
		{
			"bufferView":1,
			"componentType":5126,
			"count":7900,
			"type":"VEC3"
		},
		{
			"bufferView":2,
			"componentType":5126,
			"count":7900,
			"type":"VEC2"
		},
		{
			"bufferView":3,
			"componentType":5123,
			"count":8196,
			"type":"SCALAR"
		},
		{
			"bufferView":4,
			"componentType":5126,
			"count":534,
			"max":[
				1.5417059659957886,
				1.5113450288772583,
				-2.5093801021575928
			],
			"min":[
				-1.5417059659957886,
				1.0867340564727783,
				-4.377036094665527
			],
			"type":"VEC3"
		},
		{
			"bufferView":5,
			"componentType":5126,
			"count":534,
			"type":"VEC3"
		},
		{
			"bufferView":6,
			"componentType":5126,
			"count":534,
			"type":"VEC2"
		},
		{
			"bufferView":7,
			"componentType":5123,
			"count":672,
			"type":"SCALAR"
		}
	],
	"bufferViews":[
		{
			"buffer":0,
			"byteLength":94800,
			"byteOffset":0,
			"target":34962
		},
		{
			"buffer":0,
			"byteLength":94800,
			"byteOffset":94800,
			"target":34962
		},
		{
			"buffer":0,
			"byteLength":63200,
			"byteOffset":189600,
			"target":34962
		},
		{
			"buffer":0,
			"byteLength":16392,
			"byteOffset":252800,
			"target":34963
		},
		{
			"buffer":0,
			"byteLength":6408,
			"byteOffset":269192,
			"target":34962
		},
		{
			"buffer":0,
			"byteLength":6408,
			"byteOffset":275600,
			"target":34962
		},
		{
			"buffer":0,
			"byteLength":4272,
			"byteOffset":282008,
			"target":34962
		},
		{
			"buffer":0,
			"byteLength":1344,
			"byteOffset":286280,
			"target":34963
		}
	],
	"samplers":[
		{
			"magFilter":9729,
			"minFilter":9987
		}
	],
	"buffers":[
		{
			"byteLength":287624,
			"uri":"scene.bin"
		}
	]
}
