{
	"asset":{
		"generator":"Khronos glTF Blender I/O v4.3.47",
		"version":"2.0"
	},
	"scene":0,
	"scenes":[
		{
			"name":"Scene",
			"nodes":[
				0
			]
		}
	],
	"nodes":[
		{
			"mesh":0,
			"name":"Geo_Goose",
			"translation":[
				0,
				37,
				-4
			]
		}
	],
	"materials":[
		{
			"name":"lambert2SG",
			"pbrMetallicRoughness":{
				"baseColorTexture":{
					"index":0
				},
				"metallicFactor":0
			}
		}
	],
	"meshes":[
		{
			"name":"Geo_Goose_1",
			"primitives":[
				{
					"attributes":{
						"POSITION":0,
						"NORMAL":1,
						"TEXCOORD_0":2
					},
					"indices":3,
					"material":0
				}
			]
		}
	],
	"textures":[
		{
			"sampler":0,
			"source":0
		}
	],
	"images":[
		{
			"mimeType":"image/png",
			"name":"Tex_Goose",
			"uri":"Tex_Goose.png"
		}
	],
	"accessors":[
		{
			"bufferView":0,
			"componentType":5126,
			"count":916,
			"max":[
				12.734352111816406,
				40.19489288330078,
				28.14956283569336
			],
			"min":[
				-12.734352111816406,
				-36.743446350097656,
				-26.654956817626953
			],
			"type":"VEC3"
		},
		{
			"bufferView":1,
			"componentType":5126,
			"count":916,
			"type":"VEC3"
		},
		{
			"bufferView":2,
			"componentType":5126,
			"count":916,
			"type":"VEC2"
		},
		{
			"bufferView":3,
			"componentType":5123,
			"count":1380,
			"type":"SCALAR"
		}
	],
	"bufferViews":[
		{
			"buffer":0,
			"byteLength":10992,
			"byteOffset":0,
			"target":34962
		},
		{
			"buffer":0,
			"byteLength":10992,
			"byteOffset":10992,
			"target":34962
		},
		{
			"buffer":0,
			"byteLength":7328,
			"byteOffset":21984,
			"target":34962
		},
		{
			"buffer":0,
			"byteLength":2760,
			"byteOffset":29312,
			"target":34963
		}
	],
	"samplers":[
		{
			"magFilter":9729,
			"minFilter":9987
		}
	],
	"buffers":[
		{
			"byteLength":32072,
			"uri":"scene.bin"
		}
	]
}
