{
	"asset":{
		"generator":"Khronos glTF Blender I/O v4.3.47",
		"version":"2.0"
	},
	"scene":0,
	"scenes":[
		{
			"name":"Scene",
			"nodes":[
				5,
				6
			]
		}
	],
	"nodes":[
		{
			"mesh":0,
			"name":"Body",
			"scale":[
				100,
				100,
				100
			],
			"translation":[
				0,
				2.234210968017578,
				4.234969615936279
			]
		},
		{
			"mesh":1,
			"name":"Head",
			"scale":[
				100,
				100,
				100
			],
			"translation":[
				0,
				45.357810974121094,
				30.267066955566406
			]
		},
		{
			"mesh":2,
			"name":"L Foot",
			"scale":[
				100,
				100,
				100
			],
			"translation":[
				37,
				-18.642194747924805,
				4.2670745849609375
			]
		},
		{
			"mesh":3,
			"name":"R Foot",
			"scale":[
				100,
				100,
				100
			],
			"translation":[
				-37,
				-18.642194747924805,
				4.2670745849609375
			]
		},
		{
			"mesh":4,
			"name":"Tail",
			"rotation":[
				-0.2588190734386444,
				0,
				0,
				0.9659258127212524
			],
			"scale":[
				100,
				100.00000762939453,
				100.00000762939453
			],
			"translation":[
				0,
				-15.08079719543457,
				-26.473989486694336
			]
		},
		{
			"children":[
				0,
				1,
				2,
				3,
				4
			],
			"name":"RootNode",
			"translation":[
				0,
				30,
				0
			]
		},
		{
			"mesh":5,
			"name":"Cube"
		}
	],
	"materials":[
		{
			"name":"Material.001",
			"pbrMetallicRoughness":{
				"baseColorTexture":{
					"index":0
				},
				"metallicFactor":0.4000000059604645,
				"roughnessFactor":0.27216553688049316
			}
		},
		{
			"doubleSided":true,
			"name":"Material",
			"pbrMetallicRoughness":{
				"baseColorFactor":[
					0.800000011920929,
					0.800000011920929,
					0.800000011920929,
					1
				],
				"metallicFactor":0,
				"roughnessFactor":0.5
			}
		}
	],
	"meshes":[
		{
			"name":"Body",
			"primitives":[
				{
					"attributes":{
						"POSITION":0,
						"NORMAL":1,
						"TEXCOORD_0":2
					},
					"indices":3,
					"material":0
				}
			]
		},
		{
			"name":"Head",
			"primitives":[
				{
					"attributes":{
						"POSITION":4,
						"NORMAL":5,
						"TEXCOORD_0":6
					},
					"indices":7,
					"material":0
				}
			]
		},
		{
			"name":"L Foot",
			"primitives":[
				{
					"attributes":{
						"POSITION":8,
						"NORMAL":9,
						"TEXCOORD_0":10
					},
					"indices":11,
					"material":0
				}
			]
		},
		{
			"name":"R Foot",
			"primitives":[
				{
					"attributes":{
						"POSITION":12,
						"NORMAL":13,
						"TEXCOORD_0":14
					},
					"indices":15,
					"material":0
				}
			]
		},
		{
			"name":"Tail",
			"primitives":[
				{
					"attributes":{
						"POSITION":16,
						"NORMAL":17,
						"TEXCOORD_0":18
					},
					"indices":19,
					"material":0
				}
			]
		},
		{
			"name":"Cube",
			"primitives":[
				{
					"attributes":{
						"POSITION":20,
						"NORMAL":21,
						"TEXCOORD_0":22
					},
					"indices":23,
					"material":1
				}
			]
		}
	],
	"textures":[
		{
			"sampler":0,
			"source":0
		}
	],
	"images":[
		{
			"mimeType":"image/png",
			"name":"Porygon Texture",
			"uri":"Porygon%20Texture.png"
		}
	],
	"accessors":[
		{
			"bufferView":0,
			"componentType":5126,
			"count":80,
			"max":[
				0.25259506702423096,
				0.2884492874145508,
				0.3182314336299896
			],
			"min":[
				-0.25831854343414307,
				-0.26502370834350586,
				-0.35012874007225037
			],
			"type":"VEC3"
		},
		{
			"bufferView":1,
			"componentType":5126,
			"count":80,
			"type":"VEC3"
		},
		{
			"bufferView":2,
			"componentType":5126,
			"count":80,
			"type":"VEC2"
		},
		{
			"bufferView":3,
			"componentType":5123,
			"count":120,
			"type":"SCALAR"
		},
		{
			"bufferView":4,
			"componentType":5126,
			"count":108,
			"max":[
				0.21417959034442902,
				0.19522081315517426,
				0.3963835537433624
			],
			"min":[
				-0.2151295393705368,
				-0.19598394632339478,
				-0.46286940574645996
			],
			"type":"VEC3"
		},
		{
			"bufferView":5,
			"componentType":5126,
			"count":108,
			"type":"VEC3"
		},
		{
			"bufferView":6,
			"componentType":5126,
			"count":108,
			"type":"VEC2"
		},
		{
			"bufferView":7,
			"componentType":5123,
			"count":168,
			"type":"SCALAR"
		},
		{
			"bufferView":8,
			"componentType":5126,
			"count":32,
			"max":[
				0.11262673884630203,
				0.17485061287879944,
				0.3250431418418884
			],
			"min":[
				-0.11504953354597092,
				-0.1040893942117691,
				-0.286971777677536
			],
			"type":"VEC3"
		},
		{
			"bufferView":9,
			"componentType":5126,
			"count":32,
			"type":"VEC3"
		},
		{
			"bufferView":10,
			"componentType":5126,
			"count":32,
			"type":"VEC2"
		},
		{
			"bufferView":11,
			"componentType":5123,
			"count":48,
			"type":"SCALAR"
		},
		{
			"bufferView":12,
			"componentType":5126,
			"count":34,
			"max":[
				0.11367890983819962,
				0.17611061036586761,
				0.32124969363212585
			],
			"min":[
				-0.11399675160646439,
				-0.10282942652702332,
				-0.2907651364803314
			],
			"type":"VEC3"
		},
		{
			"bufferView":13,
			"componentType":5126,
			"count":34,
			"type":"VEC3"
		},
		{
			"bufferView":14,
			"componentType":5126,
			"count":34,
			"type":"VEC2"
		},
		{
			"bufferView":15,
			"componentType":5123,
			"count":48,
			"type":"SCALAR"
		},
		{
			"bufferView":16,
			"componentType":5126,
			"count":30,
			"max":[
				0.10554453730583191,
				0.48108935356140137,
				-0.002812738297507167
			],
			"min":[
				-0.10215739160776138,
				-0.0984676331281662,
				-0.2253451943397522
			],
			"type":"VEC3"
		},
		{
			"bufferView":17,
			"componentType":5126,
			"count":30,
			"type":"VEC3"
		},
		{
			"bufferView":18,
			"componentType":5126,
			"count":30,
			"type":"VEC2"
		},
		{
			"bufferView":19,
			"componentType":5123,
			"count":48,
			"type":"SCALAR"
		},
		{
			"bufferView":20,
			"componentType":5126,
			"count":24,
			"max":[
				1,
				1,
				1
			],
			"min":[
				-1,
				-1,
				-1
			],
			"type":"VEC3"
		},
		{
			"bufferView":21,
			"componentType":5126,
			"count":24,
			"type":"VEC3"
		},
		{
			"bufferView":22,
			"componentType":5126,
			"count":24,
			"type":"VEC2"
		},
		{
			"bufferView":23,
			"componentType":5123,
			"count":36,
			"type":"SCALAR"
		}
	],
	"bufferViews":[
		{
			"buffer":0,
			"byteLength":960,
			"byteOffset":0,
			"target":34962
		},
		{
			"buffer":0,
			"byteLength":960,
			"byteOffset":960,
			"target":34962
		},
		{
			"buffer":0,
			"byteLength":640,
			"byteOffset":1920,
			"target":34962
		},
		{
			"buffer":0,
			"byteLength":240,
			"byteOffset":2560,
			"target":34963
		},
		{
			"buffer":0,
			"byteLength":1296,
			"byteOffset":2800,
			"target":34962
		},
		{
			"buffer":0,
			"byteLength":1296,
			"byteOffset":4096,
			"target":34962
		},
		{
			"buffer":0,
			"byteLength":864,
			"byteOffset":5392,
			"target":34962
		},
		{
			"buffer":0,
			"byteLength":336,
			"byteOffset":6256,
			"target":34963
		},
		{
			"buffer":0,
			"byteLength":384,
			"byteOffset":6592,
			"target":34962
		},
		{
			"buffer":0,
			"byteLength":384,
			"byteOffset":6976,
			"target":34962
		},
		{
			"buffer":0,
			"byteLength":256,
			"byteOffset":7360,
			"target":34962
		},
		{
			"buffer":0,
			"byteLength":96,
			"byteOffset":7616,
			"target":34963
		},
		{
			"buffer":0,
			"byteLength":408,
			"byteOffset":7712,
			"target":34962
		},
		{
			"buffer":0,
			"byteLength":408,
			"byteOffset":8120,
			"target":34962
		},
		{
			"buffer":0,
			"byteLength":272,
			"byteOffset":8528,
			"target":34962
		},
		{
			"buffer":0,
			"byteLength":96,
			"byteOffset":8800,
			"target":34963
		},
		{
			"buffer":0,
			"byteLength":360,
			"byteOffset":8896,
			"target":34962
		},
		{
			"buffer":0,
			"byteLength":360,
			"byteOffset":9256,
			"target":34962
		},
		{
			"buffer":0,
			"byteLength":240,
			"byteOffset":9616,
			"target":34962
		},
		{
			"buffer":0,
			"byteLength":96,
			"byteOffset":9856,
			"target":34963
		},
		{
			"buffer":0,
			"byteLength":288,
			"byteOffset":9952,
			"target":34962
		},
		{
			"buffer":0,
			"byteLength":288,
			"byteOffset":10240,
			"target":34962
		},
		{
			"buffer":0,
			"byteLength":192,
			"byteOffset":10528,
			"target":34962
		},
		{
			"buffer":0,
			"byteLength":72,
			"byteOffset":10720,
			"target":34963
		}
	],
	"samplers":[
		{
			"magFilter":9729,
			"minFilter":9987
		}
	],
	"buffers":[
		{
			"byteLength":10792,
			"uri":"porygon.bin"
		}
	]
}
